Coordinates
version=1
nRows=7
nColumns=33
inDegrees=yes

Units are S.I. units (second, meters, Newtons, ...)
Angles are in degrees.

endheader
time	ground_thorax_rot_x	ground_thorax_rot_y	ground_thorax_rot_z	ground_thorax_tx	ground_thorax_ty	ground_thorax_tz	clav_prot_r	clav_elev_r	scapula_abduction_r	scapula_elevation_r	scapula_upward_rot_r	scapula_winging_r	shoulder_elv_r	plane_of_elev_r	axial_rot_r	elbow_flexion_r	pro_sup_r	wrist_flex_r	wrist_dev_r	clav_prot_l	clav_elev_l	scapula_abduction_l	scapula_elevation_l	scapula_upward_rot_l	scapula_winging_l	shoulder_elv_l	plane_of_elev_l	axial_rot_l	elbow_flexion_l	pro_sup_l	wrist_flex_l	wrist_dev_l
      3.90000000	     38.62305201	      0.39682084	      4.34938191	    -45.63107814	    789.22508099	      2.97955948	     15.05989202	     43.09759752	     45.00000000	     44.16230234	    -20.45660703	  -2598.78827576	  -3712.36853870	    144.81784535	   -173.54295576	    367.58401867	     26.59983343	     16.91411712	     14.46256125	      4.58629112	    -45.00000000	    -45.00000000	     45.00000000	     -5.32333358	   -634.67870016	  -1901.71929984	    137.73314540	    179.99999979	      3.88843712	     24.78026676	     10.00370178	    -18.99267124
      3.91000000	     38.62389870	      0.26122357	      4.14585631	    -47.24761938	    789.68111916	      2.84866221	     14.35210912	     42.90417208	     45.00000000	     44.21915318	    -19.74381719	  -2599.13757008	  -3712.52122285	    145.01985512	   -172.14389585	    368.16809701	     27.52807227	     17.25216452	     13.87887222	      4.63305697	    -45.00000000	    -45.00000000	     45.00000000	     -5.03754989	   -634.37273595	  -1901.65003269	    137.65076936	    179.99999979	      4.09307295	     24.32865914	     10.32228666	    -18.81329563
      3.92000000	     38.59878628	      0.29774312	      4.09177246	    -49.15948201	    790.10971724	      2.64943558	     14.32552239	     42.70898846	     45.00000000	     44.17579805	    -19.45107700	  -2599.58437668	  -3712.50253748	    145.08821135	   -171.63635959	    368.47970913	     27.86693484	     17.39691620	     13.56855303	      4.54066644	    -45.00000000	    -45.00000000	     45.00000000	     -4.84054828	   -633.96621249	  -1901.57701933	    137.53357267	    179.99999979	      4.29892086	     23.81350593	     10.30047339	    -18.90401446
      3.93000000	     38.64954772	      0.37060555	      4.23216512	    -51.39895209	    790.48550701	      2.34198318	     14.52052344	     43.51169547	     45.00000000	     44.52135150	    -20.06775129	  -2599.44286416	  -3712.21706387	    145.17609756	   -171.65215287	    368.73303326	     27.79018498	     17.42529012	     13.17040254	      4.60668344	    -45.00000000	    -45.00000000	     45.00000000	     -5.06451627	   -633.84382904	  -1901.39723020	    137.62371358	    179.99999979	      4.41120839	     23.18331370	     10.28258064	    -18.87822095
      3.94000000	     38.72553128	      0.35852552	      4.34565135	    -54.00923089	    790.75239545	      1.84609097	     14.60331917	     43.08172044	     45.00000000	     44.63712150	    -20.42076349	  -2599.66312692	  -3712.09327530	    145.12641068	   -172.05529045	    368.98052924	     27.33114696	     17.46859114	     12.81988870	      4.51526443	    -45.00000000	    -45.00000000	     45.00000000	     -4.93759631	   -633.38319547	  -1901.40102007	    137.58878451	    179.99999979	      4.62302027	     22.61376209	     10.33261554	    -18.96870277
      3.95000000	     38.80847484	      0.12481455	      4.21664554	    -57.05474560	    790.79337295	      1.01764479	     14.85421375	     43.91471114	     45.00000000	     44.66929595	    -21.00262672	  -2599.95343429	  -3711.80073497	    144.64718042	   -172.79120036	    368.94343409	     26.51431712	     17.25104337	     11.96280556	      4.44164027	    -45.00000000	    -45.00000000	     45.00000000	     -4.58503839	   -632.63200045	  -1901.37945724	    137.11105199	    179.99999979	      4.59696255	     22.12366943	     10.26145261	    -19.01416663
      3.96000000	     38.94862180	      0.39883842	      4.90383495	    -60.63407713	    790.47685036	     -0.30973816	     15.10070803	     42.93282593	     45.00000000	     44.68676064	    -22.01046702	  -2599.65951039	  -3711.46467828	    145.10528491	   -173.66016204	    369.35967410	     25.09004874	     17.13096765	     11.53627030	      4.28699192	    -45.00000000	    -45.00000000	     45.00000000	     -4.64117926	   -632.42462239	  -1901.40755398	    137.77874404	    179.99999979	      4.86955443	     21.64001584	     10.38186347	    -19.10676360
